<?xml version="1.0" encoding="utf-8"?>
<!-- Generator: Adobe Illustrator 24.3.0, SVG Export Plug-In . SVG Version: 6.00 Build 0)  -->
<svg version="1.1" xmlns="http://www.w3.org/2000/svg" xmlns:xlink="http://www.w3.org/1999/xlink" x="0px" y="0px"
	 viewBox="0 0 595.3 7876" style="enable-background:new 0 0 595.3 7876;" xml:space="preserve">
<style type="text/css">
	.st0{display:none;}
	.st1{fill:none;stroke:#FFFFFF;stroke-width:2;}
	.st2{fill:#FFFFFF;}
	.st3{font-family:'Lato-Bold';}
	.st4{font-size:12px;}
	.st5{fill:none;stroke:#3098F3;stroke-width:2;}
</style>
<g id="Layer_3">
	<rect x="0" width="595.3" height="7876"/>
</g>
<g id="Layer_1">
	<rect x="3.5" y="-3.3" class="st0" width="587.9" height="3964"/>
	
		<image style="overflow:visible;" width="414" height="6326" xlink:href="indictus_home.png"  transform="matrix(1.2311 0 0 1.2311 44.3333 46.0974)">
	</image>
</g>
<g id="Layer_2">
	<rect x="20" y="147.4" class="st1" width="556" height="6491.2"/>
	<rect x="20" y="40.4" class="st1" width="556" height="95.6"/>
	<text transform="matrix(1 0 0 1 32.6665 64.1113)" class="st2 st3 st4">NAV</text>
	<rect x="43.6" y="3764.7" class="st1" width="510.4" height="922"/>
	<rect x="44" y="178.7" class="st1" width="512" height="764"/>
	<text transform="matrix(1 0 0 1 33.6321 169.9424)" class="st2 st3 st4">MAIN</text>
	<text transform="matrix(1 0 0 1 60.9559 200.7429)" class="st2 st3 st4">SECTION</text>
	<text transform="matrix(1 0 0 1 82.2123 741.3379)" class="st2 st3 st4">DIV (Animation)</text>
	<text transform="matrix(1 0 0 1 494.4697 536.0002)" class="st2 st3 st4">H1</text>
	<text transform="matrix(1 0 0 1 68.1434 232.6665)" class="st2 st3 st4">DIV</text>
	<text transform="matrix(1 0 0 1 501.3301 619.0002)" class="st2 st3 st4">DIV</text>
	<rect x="61" y="212.7" class="st1" width="477.4" height="714"/>
	<rect x="71.7" y="382.7" class="st1" width="458.7" height="247.3"/>
	<rect x="83.2" y="558" class="st1" width="199.8" height="61"/>
	<text transform="matrix(1 0 0 1 295.7826 588.4999)" class="st2 st3 st4">SPAN</text>
	<rect x="43" y="955.6" class="st5" width="513" height="1367"/>
	<rect x="43.2" y="2329.3" class="st5" width="512" height="1412.7"/>
	<text transform="matrix(1 0 0 1 59.9561 982.0182)" class="st3 st4">SECTION</text>
	<rect x="60" y="998.7" class="st5" width="477.4" height="446.7"/>
	<rect x="60.1" y="1458.2" class="st5" width="477.4" height="849.8"/>
	<text transform="matrix(1 0 0 1 70.6667 1023.0182)" class="st3 st4">(DIV)</text>
	<text transform="matrix(1 0 0 1 68.1432 1477.1177)" class="st3 st4">DIV</text>
	<rect x="41" y="72.8" class="st1" width="512" height="55.7"/>
	<text transform="matrix(1 0 0 1 47.7825 88.2221)" class="st2 st3 st4">DIV</text>
	<rect x="75.3" y="83.6" class="st1" width="136.4" height="34.2"/>
	<text transform="matrix(1 0 0 1 198.1113 98.6665)" class="st2 st3 st4">A</text>
	<rect x="438" y="83.6" class="st1" width="93.3" height="34.2"/>
	<text transform="matrix(1 0 0 1 445.5688 101.6134)" class="st2 st3 st4">BUTTON</text>
	<rect x="70.7" y="1036" class="st5" width="458.7" height="399"/>
	<text transform="matrix(1 0 0 1 502.2955 1058.6665)" class="st3 st4">H2</text>
	<rect x="70.7" y="1489.3" class="st5" width="458.7" height="257.3"/>
	<text transform="matrix(1 0 0 1 77.0679 1507.0881)" class="st3 st4">DIV</text>
	<rect x="105.7" y="1496" class="st5" width="417.3" height="106"/>
	<rect x="77.1" y="1608.5" class="st5" width="445.9" height="130.2"/>
	<text transform="matrix(1 0 0 1 84.6477 1628.5995)" class="st3 st4">DIV</text>
	<rect x="252.3" y="1628.6" class="st5" width="93.4" height="23.9"/>
	<rect x="82.2" y="1664.7" class="st5" width="433.1" height="56.7"/>
	<text transform="matrix(1 0 0 1 352.899 1643.7744)" class="st3 st4">H4</text>
	<text transform="matrix(1 0 0 1 89.2274 1679.3334)" class="st3 st4">p</text>
	<text transform="matrix(1 0 0 1 114.2958 1513.6713)" class="st3 st4">DIV</text>
	<rect x="251" y="1501.3" class="st5" width="96.7" height="96.7"/>
	<text transform="matrix(1 0 0 1 353.8654 1516.0044)" class="st3 st4">SVG/IMG</text>
	<rect x="58.9" y="2363.3" class="st5" width="477.4" height="623.3"/>
	<text transform="matrix(1 0 0 1 70.6664 2387.3245)" class="st3 st4">ARTICLE</text>
	<text transform="matrix(1 0 0 1 54.3827 2351.3333)" class="st3 st4">SECTION</text>
	<rect x="77.1" y="2394" class="st5" width="445.9" height="554"/>
	<text transform="matrix(1 0 0 1 86.6137 2416.0005)" class="st3 st4">A</text>
	<rect x="85.6" y="2427.7" class="st5" width="429.7" height="228"/>
	<text transform="matrix(1 0 0 1 95.0138 2449.6714)" class="st3 st4">DIV</text>
	<rect x="87.5" y="2668.2" class="st5" width="427.8" height="189.8"/>
	<text transform="matrix(1 0 0 1 95.9798 2684.3333)" class="st3 st4">DIV</text>
	<rect x="93" y="2734.3" class="st5" width="415.7" height="109.3"/>
	<rect x="96" y="2695.3" class="st5" width="412.7" height="20"/>
	<rect x="54.7" y="3587.3" class="st5" width="482.8" height="90.7"/>
	<text transform="matrix(1 0 0 1 488.4811 2708.3337)" class="st3 st4">H4</text>
	<text transform="matrix(1 0 0 1 489.4467 2748.9998)" class="st3 st4">H3</text>
	<rect x="87.5" y="2875" class="st5" width="427.8" height="41"/>
	<text transform="matrix(1 0 0 1 486 2899.5)" class="st3 st4">A</text>
	<rect x="93" y="2881.1" class="st5" width="32.8" height="28.8"/>
	<text transform="matrix(1 0 0 1 130.0366 2913.4929)" class="st3 st4">SVG/IMG</text>
	<rect x="69.8" y="717.3" class="st1" width="458.7" height="198.7"/>
	<rect x="83.2" y="393.4" class="st1" width="439.2" height="153.6"/>
	<text transform="matrix(1 0 0 1 60 3603)" class="st3 st4">DIV</text>
	<rect x="142.4" y="3594.3" class="st5" width="314.6" height="76.7"/>
	<text transform="matrix(1 0 0 1 150 3613)" class="st3 st4">A</text>
	<text transform="matrix(1 0 0 1 51.6665 3783.667)" class="st3 st4">SECTION</text>
	<rect x="51.9" y="3814.7" class="st1" width="493.9" height="68"/>
	<rect x="68.1" y="3841" class="st1" width="209.2" height="14"/>
	<rect x="420.7" y="3820.7" class="st1" width="108.6" height="54.7"/>
	<text transform="matrix(1 0 0 1 55.6665 3828)" class="st3 st4">DIV</text>
	<text transform="matrix(1 0 0 1 281.5159 3851.667)" class="st3 st4">DIV</text>
	<text transform="matrix(1 0 0 1 463.3247 3834.6257)" class="st3 st4">DIV</text>
	<rect x="51.7" y="3889" class="st1" width="493.9" height="788"/>
	<rect x="72.8" y="3899.4" class="st1" width="448.2" height="768.6"/>
	<text transform="matrix(1 0 0 1 56.3335 3905)" class="st3 st4">DIV</text>
	<rect x="86" y="3912.3" class="st1" width="424" height="321"/>
	<text transform="matrix(1 0 0 1 80.6665 3916.667)" class="st3 st4">DIV</text>
	<rect x="101.5" y="3926.2" class="st1" width="393" height="294.4"/>
	<text transform="matrix(1 0 0 1 95.9796 3931.9197)" class="st3 st4">DIV</text>
	<text transform="matrix(1 0 0 1 111.3335 3945.333)" class="st3 st4">SVG/IMG</text>
	<rect x="86" y="4254.7" class="st1" width="424" height="54"/>
	<rect x="85.8" y="4317.3" class="st1" width="424" height="54"/>
	<text transform="matrix(1 0 0 1 476 4285.333)" class="st3 st4">H1</text>
	<text transform="matrix(1 0 0 1 476.9656 4348.459)" class="st3 st4">H1</text>
	<rect x="86" y="4380" class="st1" width="421.8" height="146.7"/>
	<rect x="92.1" y="4261.1" class="st1" width="377.3" height="40.9"/>
	<text transform="matrix(1 0 0 1 428.333 4286)" class="st3 st4">SPAN</text>
	<text transform="matrix(1 0 0 1 488.333 4399.333)" class="st3 st4">p</text>
	<rect x="76.9" y="4586.7" class="st1" width="430.9" height="30.7"/>
	<text transform="matrix(1 0 0 1 493 4606.333)" class="st3 st4">a</text>
	<rect x="80.8" y="4590.7" class="st1" width="22.6" height="22.6"/>
	<text transform="matrix(1 0 0 1 80.6665 4633)" class="st3 st4">SVG/IMG</text>
	<rect x="42" y="4722" class="st5" width="512" height="815.3"/>
	<rect x="72.8" y="4772" class="st5" width="453.2" height="740.3"/>
	<text transform="matrix(1 0 0 1 52.3335 4743)" class="st3 st4">SECTION</text>
	<text transform="matrix(1 0 0 1 80.6665 4790.667)" class="st3 st4">DIV</text>
	<rect x="80.7" y="4806.7" class="st5" width="434.7" height="61.3"/>
	<text transform="matrix(1 0 0 1 418.4439 4861.7778)" class="st3 st4">H1</text>
	<rect x="79.5" y="4875.1" class="st5" width="434.7" height="61.3"/>
	<text transform="matrix(1 0 0 1 500.7773 4926.4443)" class="st3 st4">p</text>
	<rect x="78.4" y="4943.6" class="st5" width="434.7" height="482.4"/>
	<text transform="matrix(1 0 0 1 86 4962)" class="st3 st4">DIV</text>
	<rect x="85.1" y="4980.6" class="st5" width="421.4" height="421.4"/>
	<text transform="matrix(1 0 0 1 95.9803 5008.3379)" class="st3 st4">DIV</text>
	<rect x="96.9" y="5014" class="st1" width="404.4" height="326"/>
	<rect x="96.9" y="5345" class="st1" width="404.4" height="32.5"/>
	<rect x="101.8" y="5097" class="st1" width="391.5" height="121"/>
	<rect x="101.8" y="5020" class="st1" width="72.5" height="72.5"/>
	<rect x="107.1" y="5024.5" class="st1" width="60.9" height="46.2"/>
	<text transform="matrix(1 0 0 1 108 5084)" class="st3 st4">DIV</text>
	<text transform="matrix(1 0 0 1 111.6665 5039)" class="st3 st4">SVG/IMG</text>
	<text transform="matrix(1 0 0 1 108.9658 5114.6665)" class="st3 st4">DIV</text>
	<rect x="109" y="5125.2" class="st1" width="377" height="86.2"/>
	<text transform="matrix(1 0 0 1 469.1195 5142.1665)" class="st3 st4">p</text>
	<rect x="476.3" y="5350.6" class="st1" width="19.5" height="21.8"/>
	<rect x="102.2" y="5350.4" class="st1" width="367.6" height="21.8"/>
	<text transform="matrix(1 0 0 1 475.5155 5386.0601)" class="st3 st4">svg/img</text>
	<text transform="matrix(1 0 0 1 231.2087 5386.0605)" class="st3 st4">DIV</text>
	<text transform="matrix(1 0 0 1 108 5364)" class="st3 st4">DIV</text>
	<rect x="78.4" y="5432.7" class="st5" width="434.7" height="35.3"/>
	<text transform="matrix(1 0 0 1 497 5453)" class="st3 st4">a</text>
	<rect x="83.8" y="5439.4" class="st1" width="22.6" height="22.6"/>
	<text transform="matrix(1 0 0 1 83.6746 5481.7227)" class="st3 st4">SVG/IMG</text>
	<rect x="43.4" y="5550.7" class="st5" width="512" height="1069.3"/>
	<text transform="matrix(1 0 0 1 50.6665 5568)" class="st3 st4">SECTION</text>
	<rect x="52.4" y="5864" class="st5" width="493.6" height="426"/>
	<text transform="matrix(1 0 0 1 59 5880)" class="st3 st4">DIV</text>
	<rect x="89.2" y="5871.3" class="st5" width="420.5" height="410.7"/>
	<text transform="matrix(1 0 0 1 96 5889)" class="st3 st4">DIV</text>
	<rect x="99.3" y="5980" class="st5" width="401.5" height="195"/>
	<text transform="matrix(1 0 0 1 105 5996)" class="st3 st4">DIV</text>
	<rect x="177" y="5987.3" class="st5" width="247" height="73.7"/>
	<rect x="177.3" y="6089" class="st5" width="247" height="73.7"/>
	<text transform="matrix(1 0 0 1 400 6050)" class="st3 st4">H3</text>
	<text transform="matrix(1 0 0 1 396 6129.8379)" class="st3 st4">a</text>
	<rect x="21.6" y="6658.8" class="st1" width="556" height="1175.1"/>
	<text transform="matrix(1 0 0 1 38 6684)" class="st2 st3 st4">FOOTER</text>
	<rect x="70.7" y="6697" class="st1" width="458" height="1125.7"/>
	<text transform="matrix(1 0 0 1 82 6718.667)" class="st2 st3 st4">DIV</text>
	<rect x="79.5" y="6738.7" class="st1" width="437.3" height="374.7"/>
	<rect x="79.1" y="7122" class="st1" width="437.3" height="688.7"/>
	<text transform="matrix(1 0 0 1 484.333 7081)" class="st2 st3 st4">DIV</text>
	<text transform="matrix(1 0 0 1 485.9998 7797.6714)" class="st2 st3 st4">DIV</text>
	<rect x="89.7" y="6753.8" class="st1" width="415.7" height="148.8"/>
	<rect x="87.9" y="6942.7" class="st1" width="167.4" height="74.4"/>
	<text transform="matrix(1 0 0 1 476.667 6889.333)" class="st2 st3 st4">H1</text>
	<text transform="matrix(1 0 0 1 233.6665 6982.333)" class="st3 st4">a</text>
	<rect x="428.3" y="6918.7" class="st1" width="125.7" height="122.7"/>
	<text transform="matrix(1 0 0 1 443.0538 6939.7773)" class="st2 st3 st4">SVG/IMG</text>
	<rect x="86.6" y="7555.3" class="st1" width="418.8" height="222.7"/>
	<text transform="matrix(1 0 0 1 485.333 7576.667)" class="st2 st3 st4">p</text>
	<rect x="86.4" y="7129.3" class="st1" width="418.8" height="298.7"/>
	<rect x="86.9" y="7437" class="st1" width="418.8" height="109"/>
	<rect x="95.3" y="7137.3" class="st1" width="402.4" height="143.5"/>
	<rect x="103.5" y="7144.8" class="st1" width="93.1" height="127.3"/>
	<rect x="244.1" y="7145.5" class="st1" width="93.1" height="127.3"/>
	<text transform="matrix(1 0 0 1 469.667 7270.667)" class="st2 st3 st4">DIV</text>
	<text transform="matrix(1 0 0 1 317.5311 7162.7153)" class="st2 st3 st4">UL</text>
	<rect x="249.1" y="7190.4" class="st1" width="81.6" height="26.9"/>
	<text transform="matrix(1 0 0 1 323.667 7233)" class="st2 st3 st4">li</text>
	<rect x="93" y="7339" class="st1" width="404" height="82.2"/>
	<text transform="matrix(1 0 0 1 454 7355.667)" class="st2 st3 st4">FORM</text>
	<rect x="97.8" y="7345.5" class="st1" width="151.3" height="16.5"/>
	<text transform="matrix(1 0 0 1 257.3335 7358)" class="st2 st3 st4">LABEL</text>
	<rect x="97.8" y="7373.3" class="st1" width="263.5" height="39.8"/>
	<rect x="481.3" y="7379.3" class="st1" width="27.3" height="22.1"/>
	<text transform="matrix(1 0 0 1 316.3885 7396.667)" class="st2 st3 st4">INPUT</text>
	<text transform="matrix(1 0 0 1 426.333 7394.333)" class="st2 st3 st4">BUTTON</text>
	<text transform="matrix(1 0 0 1 476 7535.333)" class="st2 st3 st4">DIV</text>
	<rect x="93" y="7466.7" class="st1" width="259.5" height="45.5"/>
	<text transform="matrix(1 0 0 1 361.333 7493.333)" class="st2 st3 st4">UL</text>
	<text transform="matrix(1 0 0 1 186.9481 7493.333)" class="st2 st3 st4">li &gt; a</text>
</g>
</svg>
